<?xml version="1.0"?>
<svg xmlns="http://www.w3.org/2000/svg" viewBox="-14 324.705 1592 673.295" font-family="Arial, Helvetica, sans-serif">
<title>11 kV Single Line Diagram</title>
<rect x="-14" y="324.705" width="1592" height="673.295" fill="#ffffff"></rect>
<g id="layer-0" stroke="#000000" fill="none" stroke-width="1.1" stroke-linecap="round" color="#000000">
<line x1="352" y1="623.705" x2="352" y2="673.087"></line>
<line x1="352" y1="673.087" x2="394" y2="673.087"></line>
<line x1="184" y1="723.4" x2="184" y2="741.636"></line>
<line x1="184" y1="768.807" x2="142" y2="768.807"></line>
<path d="M 149.222 783.752 A 11.161 11.161 0 0 0 134.778 783.752"></path>
<line x1="184" y1="783.752" x2="149.222" y2="783.752"></line>
<line x1="134.778" y1="783.752" x2="100" y2="783.752"></line>
<line x1="184" y1="757.636" x2="184" y2="783.752"></line>
<line x1="1234" y1="682.705" x2="1276" y2="682.705"></line>
<circle cx="1255" cy="682.705" r="1.2" fill="currentColor" stroke="none"></circle>
<line x1="1255" y1="682.705" x2="1255" y2="698.723"></line>
<line x1="974" y1="892.705" x2="990" y2="908.705" stroke="#16a34a" stroke-width="3"></line>
<line x1="974" y1="908.705" x2="990" y2="892.705" stroke="#16a34a" stroke-width="3"></line>
<line x1="1016" y1="944" x2="1032" y2="960" stroke="#16a34a" stroke-width="3"></line>
<line x1="1016" y1="960" x2="1032" y2="944" stroke="#16a34a" stroke-width="3"></line>
<line x1="890" y1="812.705" x2="906" y2="828.705" stroke="#16a34a" stroke-width="3"></line>
<line x1="890" y1="828.705" x2="906" y2="812.705" stroke="#16a34a" stroke-width="3"></line>
<line x1="848" y1="772.705" x2="864" y2="788.705" stroke="#16a34a" stroke-width="3"></line>
<line x1="848" y1="788.705" x2="864" y2="772.705" stroke="#16a34a" stroke-width="3"></line>
<line x1="932" y1="852.705" x2="948" y2="868.705" stroke="#16a34a" stroke-width="3"></line>
<line x1="932" y1="868.705" x2="948" y2="852.705" stroke="#16a34a" stroke-width="3"></line>
<line x1="764" y1="772.705" x2="780" y2="788.705" stroke="#16a34a" stroke-width="3"></line>
<line x1="764" y1="788.705" x2="780" y2="772.705" stroke="#16a34a" stroke-width="3"></line>
<line x1="722" y1="812.705" x2="738" y2="828.705" stroke="#16a34a" stroke-width="3"></line>
<line x1="722" y1="828.705" x2="738" y2="812.705" stroke="#16a34a" stroke-width="3"></line>
<line x1="680" y1="852.705" x2="696" y2="868.705" stroke="#16a34a" stroke-width="3"></line>
<line x1="680" y1="868.705" x2="696" y2="852.705" stroke="#16a34a" stroke-width="3"></line>
<line x1="638" y1="892.705" x2="654" y2="908.705" stroke="#16a34a" stroke-width="3"></line>
<line x1="638" y1="908.705" x2="654" y2="892.705" stroke="#16a34a" stroke-width="3"></line>
<line x1="596" y1="944" x2="612" y2="960" stroke="#16a34a" stroke-width="3"></line>
<line x1="596" y1="960" x2="612" y2="944" stroke="#16a34a" stroke-width="3"></line>
<line x1="92" y1="552.705" x2="108" y2="568.705" stroke="#16a34a" stroke-width="3"></line>
<line x1="92" y1="568.705" x2="108" y2="552.705" stroke="#16a34a" stroke-width="3"></line>
<line x1="134" y1="552.705" x2="150" y2="568.705" stroke="#16a34a" stroke-width="3"></line>
<line x1="134" y1="568.705" x2="150" y2="552.705" stroke="#16a34a" stroke-width="3"></line>
<line x1="176" y1="552.705" x2="192" y2="568.705" stroke="#16a34a" stroke-width="3"></line>
<line x1="176" y1="568.705" x2="192" y2="552.705" stroke="#16a34a" stroke-width="3"></line>
<line x1="218" y1="552.705" x2="234" y2="568.705" stroke="#16a34a" stroke-width="3"></line>
<line x1="218" y1="568.705" x2="234" y2="552.705" stroke="#16a34a" stroke-width="3"></line>
<line x1="260" y1="552.705" x2="276" y2="568.705" stroke="#16a34a" stroke-width="3"></line>
<line x1="260" y1="568.705" x2="276" y2="552.705" stroke="#16a34a" stroke-width="3"></line>
<line x1="302" y1="552.705" x2="318" y2="568.705" stroke="#16a34a" stroke-width="3"></line>
<line x1="302" y1="568.705" x2="318" y2="552.705" stroke="#16a34a" stroke-width="3"></line>
<line x1="344" y1="552.705" x2="360" y2="568.705" stroke="#16a34a" stroke-width="3"></line>
<line x1="344" y1="568.705" x2="360" y2="552.705" stroke="#16a34a" stroke-width="3"></line>
<line x1="386" y1="552.705" x2="402" y2="568.705" stroke="#16a34a" stroke-width="3"></line>
<line x1="386" y1="568.705" x2="402" y2="552.705" stroke="#16a34a" stroke-width="3"></line>
<line x1="428" y1="552.705" x2="444" y2="568.705" stroke="#16a34a" stroke-width="3"></line>
<line x1="428" y1="568.705" x2="444" y2="552.705" stroke="#16a34a" stroke-width="3"></line>
<line x1="470" y1="552.705" x2="486" y2="568.705" stroke="#16a34a" stroke-width="3"></line>
<line x1="470" y1="568.705" x2="486" y2="552.705" stroke="#16a34a" stroke-width="3"></line>
<line x1="512" y1="552.705" x2="528" y2="568.705" stroke="#16a34a" stroke-width="3"></line>
<line x1="512" y1="568.705" x2="528" y2="552.705" stroke="#16a34a" stroke-width="3"></line>
<line x1="554" y1="552.705" x2="570" y2="568.705" stroke="#16a34a" stroke-width="3"></line>
<line x1="554" y1="568.705" x2="570" y2="552.705" stroke="#16a34a" stroke-width="3"></line>
<line x1="596" y1="552.705" x2="612" y2="568.705" stroke="#16a34a" stroke-width="3"></line>
<line x1="596" y1="568.705" x2="612" y2="552.705" stroke="#16a34a" stroke-width="3"></line>
<line x1="638" y1="552.705" x2="654" y2="568.705" stroke="#16a34a" stroke-width="3"></line>
<line x1="638" y1="568.705" x2="654" y2="552.705" stroke="#16a34a" stroke-width="3"></line>
<line x1="680" y1="552.705" x2="696" y2="568.705" stroke="#16a34a" stroke-width="3"></line>
<line x1="680" y1="568.705" x2="696" y2="552.705" stroke="#16a34a" stroke-width="3"></line>
<line x1="722" y1="552.705" x2="738" y2="568.705" stroke="#16a34a" stroke-width="3"></line>
<line x1="722" y1="568.705" x2="738" y2="552.705" stroke="#16a34a" stroke-width="3"></line>
<line x1="764" y1="552.705" x2="780" y2="568.705" stroke="#16a34a" stroke-width="3"></line>
<line x1="764" y1="568.705" x2="780" y2="552.705" stroke="#16a34a" stroke-width="3"></line>
<line x1="848" y1="552.705" x2="864" y2="568.705" stroke="#16a34a" stroke-width="3"></line>
<line x1="848" y1="568.705" x2="864" y2="552.705" stroke="#16a34a" stroke-width="3"></line>
<line x1="890" y1="552.705" x2="906" y2="568.705" stroke="#16a34a" stroke-width="3"></line>
<line x1="890" y1="568.705" x2="906" y2="552.705" stroke="#16a34a" stroke-width="3"></line>
<line x1="932" y1="552.705" x2="948" y2="568.705" stroke="#16a34a" stroke-width="3"></line>
<line x1="932" y1="568.705" x2="948" y2="552.705" stroke="#16a34a" stroke-width="3"></line>
<line x1="974" y1="552.705" x2="990" y2="568.705" stroke="#16a34a" stroke-width="3"></line>
<line x1="974" y1="568.705" x2="990" y2="552.705" stroke="#16a34a" stroke-width="3"></line>
<line x1="1016" y1="552.705" x2="1032" y2="568.705" stroke="#16a34a" stroke-width="3"></line>
<line x1="1016" y1="568.705" x2="1032" y2="552.705" stroke="#16a34a" stroke-width="3"></line>
<line x1="1058" y1="552.705" x2="1074" y2="568.705" stroke="#16a34a" stroke-width="3"></line>
<line x1="1058" y1="568.705" x2="1074" y2="552.705" stroke="#16a34a" stroke-width="3"></line>
<line x1="1100" y1="552.705" x2="1116" y2="568.705" stroke="#16a34a" stroke-width="3"></line>
<line x1="1100" y1="568.705" x2="1116" y2="552.705" stroke="#16a34a" stroke-width="3"></line>
<line x1="1142" y1="552.705" x2="1158" y2="568.705" stroke="#16a34a" stroke-width="3"></line>
<line x1="1142" y1="568.705" x2="1158" y2="552.705" stroke="#16a34a" stroke-width="3"></line>
<line x1="1184" y1="552.705" x2="1200" y2="568.705" stroke="#16a34a" stroke-width="3"></line>
<line x1="1184" y1="568.705" x2="1200" y2="552.705" stroke="#16a34a" stroke-width="3"></line>
<line x1="1226" y1="552.705" x2="1242" y2="568.705" stroke="#16a34a" stroke-width="3"></line>
<line x1="1226" y1="568.705" x2="1242" y2="552.705" stroke="#16a34a" stroke-width="3"></line>
<line x1="1268" y1="552.705" x2="1284" y2="568.705" stroke="#16a34a" stroke-width="3"></line>
<line x1="1268" y1="568.705" x2="1284" y2="552.705" stroke="#16a34a" stroke-width="3"></line>
<line x1="1352" y1="552.705" x2="1368" y2="568.705" stroke="#16a34a" stroke-width="3"></line>
<line x1="1352" y1="568.705" x2="1368" y2="552.705" stroke="#16a34a" stroke-width="3"></line>
<line x1="1394" y1="552.705" x2="1410" y2="568.705" stroke="#16a34a" stroke-width="3"></line>
<line x1="1394" y1="568.705" x2="1410" y2="552.705" stroke="#16a34a" stroke-width="3"></line>
<line x1="1436" y1="552.705" x2="1452" y2="568.705" stroke="#16a34a" stroke-width="3"></line>
<line x1="1436" y1="568.705" x2="1452" y2="552.705" stroke="#16a34a" stroke-width="3"></line>
<line x1="1478" y1="552.705" x2="1494" y2="568.705" stroke="#16a34a" stroke-width="3"></line>
<line x1="1478" y1="568.705" x2="1494" y2="552.705" stroke="#16a34a" stroke-width="3"></line>
<line x1="1520" y1="552.705" x2="1536" y2="568.705" stroke="#16a34a" stroke-width="3"></line>
<line x1="1520" y1="568.705" x2="1536" y2="552.705" stroke="#16a34a" stroke-width="3"></line>
<line x1="992" y1="422.705" x2="1008" y2="438.705" stroke="#16a34a" stroke-width="3"></line>
<line x1="992" y1="438.705" x2="1008" y2="422.705" stroke="#16a34a" stroke-width="3"></line>
<line x1="1310" y1="552.705" x2="1326" y2="568.705" stroke="#16a34a" stroke-width="3"></line>
<line x1="1310" y1="568.705" x2="1326" y2="552.705" stroke="#16a34a" stroke-width="3"></line>
<line x1="1318" y1="695.969" x2="1360" y2="695.969"></line>
<path d="M 1367.222 710.914 A 11.161 11.161 0 0 0 1352.778 710.914"></path>
<line x1="1318" y1="710.914" x2="1352.778" y2="710.914"></line>
<line x1="1367.222" y1="710.914" x2="1402" y2="710.914"></line>
<line x1="1318" y1="684.798" x2="1318" y2="710.914"></line>
<line x1="1436" y1="702.705" x2="1452" y2="718.705" stroke="#16a34a" stroke-width="3"></line>
<line x1="1436" y1="718.705" x2="1452" y2="702.705" stroke="#16a34a" stroke-width="3"></line>
<line x1="1444" y1="747.866" x2="1486" y2="747.866"></line>
<path d="M 1493.222 762.811 A 11.161 11.161 0 0 0 1478.778 762.811"></path>
<line x1="1444" y1="762.811" x2="1478.778" y2="762.811"></line>
<line x1="1493.222" y1="762.811" x2="1528" y2="762.811"></line>
<line x1="1444" y1="718.705" x2="1444" y2="762.811"></line>
<line x1="472" y1="422.705" x2="488" y2="438.705" stroke="#16a34a" stroke-width="3"></line>
<line x1="472" y1="438.705" x2="488" y2="422.705" stroke="#16a34a" stroke-width="3"></line>
<line x1="310" y1="744.186" x2="268" y2="744.186"></line>
<path d="M 275.222 759.132 A 11.161 11.161 0 0 0 260.778 759.132"></path>
<line x1="310" y1="759.132" x2="275.222" y2="759.132"></line>
<line x1="260.778" y1="759.132" x2="226" y2="759.132"></line>
<line x1="310" y1="733.015" x2="310" y2="759.132"></line>
<line x1="310" y1="759.132" x2="310" y2="759.132"></line>
<line x1="310" y1="759.132" x2="596.663" y2="759.132"></line>
<line x1="1318" y1="759.132" x2="1318" y2="710.914"></line>
<path d="M 611.107 759.132 A 11.161 11.161 0 0 0 596.663 759.132"></path>
<line x1="611.107" y1="759.132" x2="638.663" y2="759.132"></line>
<path d="M 653.107 759.132 A 11.161 11.161 0 0 0 638.663 759.132"></path>
<path d="M 695.107 759.132 A 11.161 11.161 0 0 0 680.663 759.132"></path>
<path d="M 737.107 759.132 A 11.161 11.161 0 0 0 722.663 759.132"></path>
<path d="M 779.107 759.132 A 11.161 11.161 0 0 0 764.663 759.132"></path>
<path d="M 863.107 759.132 A 11.161 11.161 0 0 0 848.663 759.132"></path>
<path d="M 905.107 759.132 A 11.161 11.161 0 0 0 890.663 759.132"></path>
<path d="M 947.107 759.132 A 11.161 11.161 0 0 0 932.663 759.132"></path>
<path d="M 989.107 759.132 A 11.161 11.161 0 0 0 974.663 759.132"></path>
<path d="M 1031.107 759.132 A 11.161 11.161 0 0 0 1016.663 759.132"></path>
<line x1="653.107" y1="759.132" x2="680.663" y2="759.132"></line>
<line x1="695.107" y1="759.132" x2="722.663" y2="759.132"></line>
<line x1="737.107" y1="759.132" x2="764.663" y2="759.132"></line>
<line x1="779.107" y1="759.132" x2="848.663" y2="759.132"></line>
<line x1="863.107" y1="759.132" x2="890.663" y2="759.132"></line>
<line x1="905.107" y1="759.132" x2="932.663" y2="759.132"></line>
<line x1="947.107" y1="759.132" x2="974.663" y2="759.132"></line>
<line x1="989.107" y1="759.132" x2="1016.663" y2="759.132"></line>
<line x1="1031.107" y1="759.132" x2="1318" y2="759.132"></line>
</g>
<g id="layer-FEEDER" stroke="#000000" fill="none" stroke-width="1.1" stroke-linecap="round" color="#000000">
<line x1="480" y1="362.705" x2="480" y2="377.705"></line>
<circle cx="480" cy="387.705" r="10"></circle>
<circle cx="480" cy="401.705" r="10"></circle>
<line x1="480" y1="411.705" x2="480" y2="422.705"></line>
<line x1="472" y1="438.705" x2="488" y2="438.705"></line>
<line x1="488" y1="438.705" x2="488" y2="422.705"></line>
<line x1="488" y1="422.705" x2="472" y2="422.705"></line>
<line x1="472" y1="422.705" x2="472" y2="438.705"></line>
<line x1="480" y1="438.705" x2="480" y2="522.705"></line>
<line x1="1000" y1="362.705" x2="1000" y2="377.705"></line>
<circle cx="1000" cy="387.705" r="10"></circle>
<circle cx="1000" cy="401.705" r="10"></circle>
<line x1="1000" y1="411.705" x2="1000" y2="422.705"></line>
<line x1="992" y1="438.705" x2="1008" y2="438.705"></line>
<line x1="1008" y1="438.705" x2="1008" y2="422.705"></line>
<line x1="1008" y1="422.705" x2="992" y2="422.705"></line>
<line x1="992" y1="422.705" x2="992" y2="438.705"></line>
<line x1="1000" y1="438.705" x2="1000" y2="522.705"></line>
<line x1="100" y1="522.705" x2="100" y2="552.705"></line>
<line x1="92" y1="568.705" x2="108" y2="568.705"></line>
<line x1="108" y1="568.705" x2="108" y2="552.705"></line>
<line x1="108" y1="552.705" x2="92" y2="552.705"></line>
<line x1="92" y1="552.705" x2="92" y2="568.705"></line>
<line x1="100" y1="568.705" x2="100" y2="806.523"></line>
<circle cx="100" cy="818.523" r="12"></circle>
<line x1="142" y1="522.705" x2="142" y2="552.705"></line>
<line x1="134" y1="568.705" x2="150" y2="568.705"></line>
<line x1="150" y1="568.705" x2="150" y2="552.705"></line>
<line x1="150" y1="552.705" x2="134" y2="552.705"></line>
<line x1="134" y1="552.705" x2="134" y2="568.705"></line>
<line x1="184" y1="568.705" x2="184" y2="601.705"></line>
<line x1="164" y1="623.705" x2="204" y2="623.705"></line>
<line x1="204" y1="623.705" x2="204" y2="601.705"></line>
<line x1="204" y1="601.705" x2="164" y2="601.705"></line>
<line x1="164" y1="601.705" x2="164" y2="623.705"></line>
<line x1="184" y1="522.705" x2="184" y2="552.705"></line>
<line x1="176" y1="568.705" x2="192" y2="568.705"></line>
<line x1="192" y1="568.705" x2="192" y2="552.705"></line>
<line x1="192" y1="552.705" x2="176" y2="552.705"></line>
<line x1="176" y1="552.705" x2="176" y2="568.705"></line>
<line x1="142" y1="568.705" x2="142" y2="806.523"></line>
<circle cx="142" cy="818.523" r="12"></circle>
<line x1="226" y1="522.705" x2="226" y2="552.705"></line>
<line x1="218" y1="568.705" x2="234" y2="568.705"></line>
<line x1="234" y1="568.705" x2="234" y2="552.705"></line>
<line x1="234" y1="552.705" x2="218" y2="552.705"></line>
<line x1="218" y1="552.705" x2="218" y2="568.705"></line>
<line x1="226" y1="568.705" x2="226" y2="806.523"></line>
<circle cx="226" cy="818.523" r="12"></circle>
<line x1="268" y1="522.705" x2="268" y2="552.705"></line>
<line x1="260" y1="568.705" x2="276" y2="568.705"></line>
<line x1="276" y1="568.705" x2="276" y2="552.705"></line>
<line x1="276" y1="552.705" x2="260" y2="552.705"></line>
<line x1="260" y1="552.705" x2="260" y2="568.705"></line>
<line x1="352" y1="568.705" x2="352" y2="601.705"></line>
<line x1="332" y1="623.705" x2="372" y2="623.705"></line>
<line x1="372" y1="623.705" x2="372" y2="601.705"></line>
<line x1="372" y1="601.705" x2="332" y2="601.705"></line>
<line x1="332" y1="601.705" x2="332" y2="623.705"></line>
<line x1="268" y1="568.705" x2="268" y2="806.523"></line>
<circle cx="268" cy="818.523" r="12"></circle>
<line x1="310" y1="522.705" x2="310" y2="552.705"></line>
<line x1="302" y1="568.705" x2="318" y2="568.705"></line>
<line x1="318" y1="568.705" x2="318" y2="552.705"></line>
<line x1="318" y1="552.705" x2="302" y2="552.705"></line>
<line x1="302" y1="552.705" x2="302" y2="568.705"></line>
<line x1="352" y1="522.705" x2="352" y2="552.705"></line>
<line x1="344" y1="568.705" x2="360" y2="568.705"></line>
<line x1="360" y1="568.705" x2="360" y2="552.705"></line>
<line x1="360" y1="552.705" x2="344" y2="552.705"></line>
<line x1="344" y1="552.705" x2="344" y2="568.705"></line>
<line x1="520" y1="568.705" x2="520" y2="624.705"></line>
<circle cx="520" cy="634.705" r="10"></circle>
<line x1="394" y1="522.705" x2="394" y2="552.705"></line>
<line x1="386" y1="568.705" x2="402" y2="568.705"></line>
<line x1="402" y1="568.705" x2="402" y2="552.705"></line>
<line x1="402" y1="552.705" x2="386" y2="552.705"></line>
<line x1="386" y1="552.705" x2="386" y2="568.705"></line>
<line x1="394" y1="568.705" x2="394" y2="711.015"></line>
<circle cx="394" cy="723.015" r="12"></circle>
<line x1="436" y1="522.705" x2="436" y2="552.705"></line>
<line x1="428" y1="568.705" x2="444" y2="568.705"></line>
<line x1="444" y1="568.705" x2="444" y2="552.705"></line>
<line x1="444" y1="552.705" x2="428" y2="552.705"></line>
<line x1="428" y1="552.705" x2="428" y2="568.705"></line>
<line x1="436" y1="568.705" x2="436" y2="622.705"></line>
<circle cx="436" cy="634.705" r="12"></circle>
<line x1="478" y1="522.705" x2="478" y2="552.705"></line>
<line x1="470" y1="568.705" x2="486" y2="568.705"></line>
<line x1="486" y1="568.705" x2="486" y2="552.705"></line>
<line x1="486" y1="552.705" x2="470" y2="552.705"></line>
<line x1="470" y1="552.705" x2="470" y2="568.705"></line>
<line x1="478" y1="568.705" x2="478" y2="622.705"></line>
<circle cx="478" cy="634.705" r="12"></circle>
<line x1="520" y1="522.705" x2="520" y2="552.705"></line>
<line x1="512" y1="568.705" x2="528" y2="568.705"></line>
<line x1="528" y1="568.705" x2="528" y2="552.705"></line>
<line x1="528" y1="552.705" x2="512" y2="552.705"></line>
<line x1="512" y1="552.705" x2="512" y2="568.705"></line>
<line x1="562" y1="568.705" x2="562" y2="582.705"></line>
<line x1="562" y1="522.705" x2="562" y2="552.705"></line>
<line x1="554" y1="568.705" x2="570" y2="568.705"></line>
<line x1="570" y1="568.705" x2="570" y2="552.705"></line>
<line x1="570" y1="552.705" x2="554" y2="552.705"></line>
<line x1="554" y1="552.705" x2="554" y2="568.705"></line>
<line x1="604" y1="522.705" x2="604" y2="552.705"></line>
<line x1="596" y1="568.705" x2="612" y2="568.705"></line>
<line x1="612" y1="568.705" x2="612" y2="552.705"></line>
<line x1="612" y1="552.705" x2="596" y2="552.705"></line>
<line x1="596" y1="552.705" x2="596" y2="568.705"></line>
<line x1="604" y1="568.705" x2="604" y2="592.705"></line>
<circle cx="604" cy="602.705" r="10"></circle>
<circle cx="604" cy="616.705" r="10"></circle>
<line x1="646" y1="522.705" x2="646" y2="552.705"></line>
<line x1="638" y1="568.705" x2="654" y2="568.705"></line>
<line x1="654" y1="568.705" x2="654" y2="552.705"></line>
<line x1="654" y1="552.705" x2="638" y2="552.705"></line>
<line x1="638" y1="552.705" x2="638" y2="568.705"></line>
<line x1="646" y1="568.705" x2="646" y2="592.705"></line>
<circle cx="646" cy="602.705" r="10"></circle>
<circle cx="646" cy="616.705" r="10"></circle>
<line x1="688" y1="522.705" x2="688" y2="552.705"></line>
<line x1="680" y1="568.705" x2="696" y2="568.705"></line>
<line x1="696" y1="568.705" x2="696" y2="552.705"></line>
<line x1="696" y1="552.705" x2="680" y2="552.705"></line>
<line x1="680" y1="552.705" x2="680" y2="568.705"></line>
<line x1="688" y1="568.705" x2="688" y2="592.705"></line>
<circle cx="688" cy="602.705" r="10"></circle>
<circle cx="688" cy="616.705" r="10"></circle>
<line x1="730" y1="522.705" x2="730" y2="552.705"></line>
<line x1="722" y1="568.705" x2="738" y2="568.705"></line>
<line x1="738" y1="568.705" x2="738" y2="552.705"></line>
<line x1="738" y1="552.705" x2="722" y2="552.705"></line>
<line x1="722" y1="552.705" x2="722" y2="568.705"></line>
<line x1="730" y1="568.705" x2="730" y2="592.705"></line>
<circle cx="730" cy="602.705" r="10"></circle>
<circle cx="730" cy="616.705" r="10"></circle>
<line x1="772" y1="522.705" x2="772" y2="552.705"></line>
<line x1="764" y1="568.705" x2="780" y2="568.705"></line>
<line x1="780" y1="568.705" x2="780" y2="552.705"></line>
<line x1="780" y1="552.705" x2="764" y2="552.705"></line>
<line x1="764" y1="552.705" x2="764" y2="568.705"></line>
<line x1="772" y1="568.705" x2="772" y2="592.705"></line>
<circle cx="772" cy="602.705" r="10"></circle>
<circle cx="772" cy="616.705" r="10"></circle>
<line x1="856" y1="522.705" x2="856" y2="552.705"></line>
<line x1="848" y1="568.705" x2="864" y2="568.705"></line>
<line x1="864" y1="568.705" x2="864" y2="552.705"></line>
<line x1="864" y1="552.705" x2="848" y2="552.705"></line>
<line x1="848" y1="552.705" x2="848" y2="568.705"></line>
<line x1="856" y1="568.705" x2="856" y2="592.705"></line>
<circle cx="856" cy="602.705" r="10"></circle>
<circle cx="856" cy="616.705" r="10"></circle>
<line x1="898" y1="522.705" x2="898" y2="552.705"></line>
<line x1="890" y1="568.705" x2="906" y2="568.705"></line>
<line x1="906" y1="568.705" x2="906" y2="552.705"></line>
<line x1="906" y1="552.705" x2="890" y2="552.705"></line>
<line x1="890" y1="552.705" x2="890" y2="568.705"></line>
<line x1="898" y1="568.705" x2="898" y2="592.705"></line>
<circle cx="898" cy="602.705" r="10"></circle>
<circle cx="898" cy="616.705" r="10"></circle>
<line x1="940" y1="522.705" x2="940" y2="552.705"></line>
<line x1="932" y1="568.705" x2="948" y2="568.705"></line>
<line x1="948" y1="568.705" x2="948" y2="552.705"></line>
<line x1="948" y1="552.705" x2="932" y2="552.705"></line>
<line x1="932" y1="552.705" x2="932" y2="568.705"></line>
<line x1="940" y1="568.705" x2="940" y2="592.705"></line>
<circle cx="940" cy="602.705" r="10"></circle>
<circle cx="940" cy="616.705" r="10"></circle>
<line x1="982" y1="522.705" x2="982" y2="552.705"></line>
<line x1="974" y1="568.705" x2="990" y2="568.705"></line>
<line x1="990" y1="568.705" x2="990" y2="552.705"></line>
<line x1="990" y1="552.705" x2="974" y2="552.705"></line>
<line x1="974" y1="552.705" x2="974" y2="568.705"></line>
<line x1="982" y1="568.705" x2="982" y2="592.705"></line>
<circle cx="982" cy="602.705" r="10"></circle>
<circle cx="982" cy="616.705" r="10"></circle>
<line x1="1024" y1="522.705" x2="1024" y2="552.705"></line>
<line x1="1016" y1="568.705" x2="1032" y2="568.705"></line>
<line x1="1032" y1="568.705" x2="1032" y2="552.705"></line>
<line x1="1032" y1="552.705" x2="1016" y2="552.705"></line>
<line x1="1016" y1="552.705" x2="1016" y2="568.705"></line>
<line x1="1024" y1="568.705" x2="1024" y2="592.705"></line>
<circle cx="1024" cy="602.705" r="10"></circle>
<circle cx="1024" cy="616.705" r="10"></circle>
<line x1="1024" y1="626.705" x2="1024" y2="944"></line>
<line x1="1016" y1="960" x2="1032" y2="960"></line>
<line x1="1032" y1="960" x2="1032" y2="944"></line>
<line x1="1032" y1="944" x2="1016" y2="944"></line>
<line x1="1016" y1="944" x2="1016" y2="960"></line>
<line x1="1024" y1="960" x2="1024" y2="978"></line>
<line x1="1066" y1="522.705" x2="1066" y2="552.705"></line>
<line x1="1058" y1="568.705" x2="1074" y2="568.705"></line>
<line x1="1074" y1="568.705" x2="1074" y2="552.705"></line>
<line x1="1074" y1="552.705" x2="1058" y2="552.705"></line>
<line x1="1058" y1="552.705" x2="1058" y2="568.705"></line>
<line x1="1066" y1="568.705" x2="1066" y2="582.705"></line>
<line x1="1108" y1="522.705" x2="1108" y2="552.705"></line>
<line x1="1100" y1="568.705" x2="1116" y2="568.705"></line>
<line x1="1116" y1="568.705" x2="1116" y2="552.705"></line>
<line x1="1116" y1="552.705" x2="1100" y2="552.705"></line>
<line x1="1100" y1="552.705" x2="1100" y2="568.705"></line>
<line x1="1108" y1="568.705" x2="1108" y2="624.705"></line>
<circle cx="1108" cy="634.705" r="10"></circle>
<line x1="1150" y1="522.705" x2="1150" y2="552.705"></line>
<line x1="1142" y1="568.705" x2="1158" y2="568.705"></line>
<line x1="1158" y1="568.705" x2="1158" y2="552.705"></line>
<line x1="1158" y1="552.705" x2="1142" y2="552.705"></line>
<line x1="1142" y1="552.705" x2="1142" y2="568.705"></line>
<line x1="1150" y1="568.705" x2="1150" y2="622.705"></line>
<line x1="1192" y1="522.705" x2="1192" y2="552.705"></line>
<line x1="1184" y1="568.705" x2="1200" y2="568.705"></line>
<line x1="1200" y1="568.705" x2="1200" y2="552.705"></line>
<line x1="1200" y1="552.705" x2="1184" y2="552.705"></line>
<line x1="1184" y1="552.705" x2="1184" y2="568.705"></line>
<line x1="1192" y1="568.705" x2="1192" y2="622.705"></line>
<circle cx="1192" cy="634.705" r="12"></circle>
<line x1="1234" y1="522.705" x2="1234" y2="552.705"></line>
<line x1="1226" y1="568.705" x2="1242" y2="568.705"></line>
<line x1="1242" y1="568.705" x2="1242" y2="552.705"></line>
<line x1="1242" y1="552.705" x2="1226" y2="552.705"></line>
<line x1="1226" y1="552.705" x2="1226" y2="568.705"></line>
<line x1="1234" y1="568.705" x2="1234" y2="592.705"></line>
<circle cx="1234" cy="602.705" r="10"></circle>
<circle cx="1234" cy="616.705" r="10"></circle>
<line x1="1234" y1="626.705" x2="1234" y2="682.705"></line>
<circle cx="1255" cy="710.723" r="12"></circle>
<line x1="1276" y1="522.705" x2="1276" y2="552.705"></line>
<line x1="1268" y1="568.705" x2="1284" y2="568.705"></line>
<line x1="1284" y1="568.705" x2="1284" y2="552.705"></line>
<line x1="1284" y1="552.705" x2="1268" y2="552.705"></line>
<line x1="1268" y1="552.705" x2="1268" y2="568.705"></line>
<line x1="1276" y1="568.705" x2="1276" y2="592.705"></line>
<circle cx="1276" cy="602.705" r="10"></circle>
<circle cx="1276" cy="616.705" r="10"></circle>
<line x1="1276" y1="626.705" x2="1276" y2="682.705"></line>
<line x1="1360" y1="522.705" x2="1360" y2="552.705"></line>
<line x1="1352" y1="568.705" x2="1368" y2="568.705"></line>
<line x1="1368" y1="568.705" x2="1368" y2="552.705"></line>
<line x1="1368" y1="552.705" x2="1352" y2="552.705"></line>
<line x1="1352" y1="552.705" x2="1352" y2="568.705"></line>
<line x1="1360" y1="568.705" x2="1360" y2="748.69"></line>
<circle cx="1360" cy="760.69" r="12"></circle>
<line x1="1402" y1="522.705" x2="1402" y2="552.705"></line>
<line x1="1394" y1="568.705" x2="1410" y2="568.705"></line>
<line x1="1410" y1="568.705" x2="1410" y2="552.705"></line>
<line x1="1410" y1="552.705" x2="1394" y2="552.705"></line>
<line x1="1394" y1="552.705" x2="1394" y2="568.705"></line>
<line x1="1444" y1="522.705" x2="1444" y2="552.705"></line>
<line x1="1436" y1="568.705" x2="1452" y2="568.705"></line>
<line x1="1452" y1="568.705" x2="1452" y2="552.705"></line>
<line x1="1452" y1="552.705" x2="1436" y2="552.705"></line>
<line x1="1436" y1="552.705" x2="1436" y2="568.705"></line>
<line x1="1444" y1="568.705" x2="1444" y2="601.705"></line>
<line x1="1424" y1="623.705" x2="1464" y2="623.705"></line>
<line x1="1464" y1="623.705" x2="1464" y2="601.705"></line>
<line x1="1464" y1="601.705" x2="1424" y2="601.705"></line>
<line x1="1424" y1="601.705" x2="1424" y2="623.705"></line>
<line x1="1486" y1="522.705" x2="1486" y2="552.705"></line>
<line x1="1478" y1="568.705" x2="1494" y2="568.705"></line>
<line x1="1494" y1="568.705" x2="1494" y2="552.705"></line>
<line x1="1494" y1="552.705" x2="1478" y2="552.705"></line>
<line x1="1478" y1="552.705" x2="1478" y2="568.705"></line>
<line x1="1486" y1="568.705" x2="1486" y2="772.079"></line>
<circle cx="1486" cy="784.079" r="12"></circle>
<line x1="1528" y1="522.705" x2="1528" y2="552.705"></line>
<line x1="1520" y1="568.705" x2="1536" y2="568.705"></line>
<line x1="1536" y1="568.705" x2="1536" y2="552.705"></line>
<line x1="1536" y1="552.705" x2="1520" y2="552.705"></line>
<line x1="1520" y1="552.705" x2="1520" y2="568.705"></line>
<line x1="1528" y1="568.705" x2="1528" y2="772.079"></line>
<circle cx="1528" cy="784.079" r="12"></circle>
<line x1="772" y1="626.705" x2="772" y2="772.705"></line>
<line x1="764" y1="788.705" x2="780" y2="788.705"></line>
<line x1="780" y1="788.705" x2="780" y2="772.705"></line>
<line x1="780" y1="772.705" x2="764" y2="772.705"></line>
<line x1="764" y1="772.705" x2="764" y2="788.705"></line>
<line x1="772" y1="788.705" x2="772" y2="802.705"></line>
<line x1="856" y1="626.705" x2="856" y2="772.705"></line>
<line x1="848" y1="788.705" x2="864" y2="788.705"></line>
<line x1="864" y1="788.705" x2="864" y2="772.705"></line>
<line x1="864" y1="772.705" x2="848" y2="772.705"></line>
<line x1="848" y1="772.705" x2="848" y2="788.705"></line>
<line x1="856" y1="788.705" x2="856" y2="802.705"></line>
<line x1="730" y1="626.705" x2="730" y2="812.705"></line>
<line x1="722" y1="828.705" x2="738" y2="828.705"></line>
<line x1="738" y1="828.705" x2="738" y2="812.705"></line>
<line x1="738" y1="812.705" x2="722" y2="812.705"></line>
<line x1="722" y1="812.705" x2="722" y2="828.705"></line>
<line x1="730" y1="828.705" x2="730" y2="842.705"></line>
<line x1="898" y1="626.705" x2="898" y2="812.705"></line>
<line x1="890" y1="828.705" x2="906" y2="828.705"></line>
<line x1="906" y1="828.705" x2="906" y2="812.705"></line>
<line x1="906" y1="812.705" x2="890" y2="812.705"></line>
<line x1="890" y1="812.705" x2="890" y2="828.705"></line>
<line x1="898" y1="828.705" x2="898" y2="842.705"></line>
<line x1="688" y1="626.705" x2="688" y2="852.705"></line>
<line x1="680" y1="868.705" x2="696" y2="868.705"></line>
<line x1="696" y1="868.705" x2="696" y2="852.705"></line>
<line x1="696" y1="852.705" x2="680" y2="852.705"></line>
<line x1="680" y1="852.705" x2="680" y2="868.705"></line>
<line x1="688" y1="868.705" x2="688" y2="882.705"></line>
<line x1="940" y1="626.705" x2="940" y2="852.705"></line>
<line x1="932" y1="868.705" x2="948" y2="868.705"></line>
<line x1="948" y1="868.705" x2="948" y2="852.705"></line>
<line x1="948" y1="852.705" x2="932" y2="852.705"></line>
<line x1="932" y1="852.705" x2="932" y2="868.705"></line>
<line x1="940" y1="868.705" x2="940" y2="882.705"></line>
<line x1="646" y1="626.705" x2="646" y2="892.705"></line>
<line x1="638" y1="908.705" x2="654" y2="908.705"></line>
<line x1="654" y1="908.705" x2="654" y2="892.705"></line>
<line x1="654" y1="892.705" x2="638" y2="892.705"></line>
<line x1="638" y1="892.705" x2="638" y2="908.705"></line>
<line x1="646" y1="908.705" x2="646" y2="922.705"></line>
<line x1="982" y1="626.705" x2="982" y2="892.705"></line>
<line x1="974" y1="908.705" x2="990" y2="908.705"></line>
<line x1="990" y1="908.705" x2="990" y2="892.705"></line>
<line x1="990" y1="892.705" x2="974" y2="892.705"></line>
<line x1="974" y1="892.705" x2="974" y2="908.705"></line>
<line x1="982" y1="908.705" x2="982" y2="922.705"></line>
<line x1="604" y1="626.705" x2="604" y2="944"></line>
<line x1="596" y1="960" x2="612" y2="960"></line>
<line x1="612" y1="960" x2="612" y2="944"></line>
<line x1="612" y1="944" x2="596" y2="944"></line>
<line x1="596" y1="944" x2="596" y2="960"></line>
<line x1="604" y1="960" x2="604" y2="978"></line>
<line x1="310" y1="568.705" x2="310" y2="711.015"></line>
<line x1="290" y1="733.015" x2="330" y2="733.015"></line>
<line x1="330" y1="733.015" x2="330" y2="711.015"></line>
<line x1="330" y1="711.015" x2="290" y2="711.015"></line>
<line x1="290" y1="711.015" x2="290" y2="733.015"></line>
<line x1="184" y1="623.705" x2="184" y2="653.705"></line>
<line x1="176" y1="669.705" x2="192" y2="669.705"></line>
<line x1="192" y1="669.705" x2="192" y2="653.705"></line>
<line x1="192" y1="653.705" x2="176" y2="653.705"></line>
<line x1="176" y1="653.705" x2="176" y2="669.705"></line>
<line x1="184" y1="669.705" x2="184" y2="689.4"></line>
<circle cx="184" cy="699.4" r="10"></circle>
<circle cx="184" cy="713.4" r="10"></circle>
<line x1="176" y1="757.636" x2="192" y2="757.636"></line>
<line x1="192" y1="757.636" x2="192" y2="741.636"></line>
<line x1="192" y1="741.636" x2="176" y2="741.636"></line>
<line x1="176" y1="741.636" x2="176" y2="757.636"></line>
<line x1="1318" y1="568.705" x2="1318" y2="662.798"></line>
<line x1="1298" y1="684.798" x2="1338" y2="684.798"></line>
<line x1="1338" y1="684.798" x2="1338" y2="662.798"></line>
<line x1="1338" y1="662.798" x2="1298" y2="662.798"></line>
<line x1="1298" y1="662.798" x2="1298" y2="684.798"></line>
<line x1="1318" y1="522.705" x2="1318" y2="552.705"></line>
<line x1="1310" y1="568.705" x2="1326" y2="568.705"></line>
<line x1="1326" y1="568.705" x2="1326" y2="552.705"></line>
<line x1="1326" y1="552.705" x2="1310" y2="552.705"></line>
<line x1="1310" y1="552.705" x2="1310" y2="568.705"></line>
<line x1="1402" y1="568.705" x2="1402" y2="748.69"></line>
<circle cx="1402" cy="760.69" r="12"></circle>
<line x1="1436" y1="718.705" x2="1452" y2="718.705"></line>
<line x1="1452" y1="718.705" x2="1452" y2="702.705"></line>
<line x1="1452" y1="702.705" x2="1436" y2="702.705"></line>
<line x1="1436" y1="702.705" x2="1436" y2="718.705"></line>
<circle cx="1444" cy="652.253" r="10"></circle>
<circle cx="1444" cy="666.253" r="10"></circle>
<line x1="1444" y1="676.253" x2="1444" y2="702.705"></line>
<line x1="1444" y1="623.705" x2="1444" y2="642.253"></line>
</g>
<g id="layer-BUS" stroke="#000000" fill="none" stroke-width="3.5" stroke-linecap="butt" color="#000000">
<line x1="80" y1="522.705" x2="806" y2="522.705"></line>
<line x1="822" y1="522.705" x2="1558" y2="522.705"></line>
<line x1="400" y1="362.705" x2="1080" y2="362.705"></line>
<line x1="772" y1="802.705" x2="856" y2="802.705"></line>
<line x1="730" y1="842.705" x2="898" y2="842.705"></line>
<line x1="688" y1="882.705" x2="940" y2="882.705"></line>
<line x1="646" y1="922.705" x2="982" y2="922.705"></line>
<line x1="604" y1="978" x2="1024" y2="978"></line>
<g stroke-width="1.1" stroke-linecap="round">
<line x1="806" y1="530.705" x2="822" y2="530.705"></line>
<line x1="822" y1="530.705" x2="822" y2="514.705"></line>
<line x1="822" y1="514.705" x2="806" y2="514.705"></line>
<line x1="806" y1="514.705" x2="806" y2="530.705"></line>
<line x1="806" y1="530.705" x2="822" y2="514.705" stroke="#16a34a" stroke-width="3"></line>
<line x1="806" y1="514.705" x2="822" y2="530.705" stroke="#16a34a" stroke-width="3"></line>
</g>
</g>
<g id="layer-TEXT" stroke="#009900" fill="none" stroke-width="1.1" stroke-linecap="round" color="#009900">
<g stroke="none" fill="#009900">
<text x="6" y="525.705" font-size="12.51">11 kV</text>
<text x="394" y="484.705" font-size="22.24">A</text>
<text x="1234" y="484.705" font-size="22.24">B</text>
<text x="722" y="354.705" font-size="13.9">33 kV</text>
<text x="496" y="400.705" font-size="9.73">33/11 kV</text>
<text x="1016" y="400.705" font-size="9.73">33/11 kV</text>
<text x="62" y="546.705" font-size="9.035">626A</text>
<text x="95.8" y="819.523" font-size="11.12">M</text>
<text x="95.5" y="828.023" font-size="6.95">3~</text>
<text x="104" y="546.705" font-size="9.035">627A</text>
<text x="168" y="610.705" font-size="7.645">SOFT</text>
<text x="168" y="620.705" font-size="7.645">START</text>
<text x="146" y="546.705" font-size="9.035">646A</text>
<text x="137.8" y="819.523" font-size="11.12">M</text>
<text x="137.5" y="828.023" font-size="6.95">3~</text>
<text x="188" y="546.705" font-size="9.035">625A</text>
<text x="221.8" y="819.523" font-size="11.12">M</text>
<text x="221.5" y="828.023" font-size="6.95">3~</text>
<text x="230" y="546.705" font-size="9.035">624A</text>
<text x="336" y="610.705" font-size="7.645">SOFT</text>
<text x="336" y="620.705" font-size="7.645">START</text>
<text x="263.8" y="819.523" font-size="11.12">M</text>
<text x="263.5" y="828.023" font-size="6.95">3~</text>
<text x="272" y="546.705" font-size="9.035">601A</text>
<text x="314" y="546.705" font-size="9.035">602A</text>
<text x="516.5" y="638.205" font-size="9.73">C</text>
<text x="356" y="546.705" font-size="9.035">611A</text>
<text x="389.8" y="724.015" font-size="11.12">M</text>
<text x="389.5" y="732.515" font-size="6.95">3~</text>
<text x="398" y="546.705" font-size="9.035">610A</text>
<text x="431.8" y="635.705" font-size="11.12">M</text>
<text x="431.5" y="644.205" font-size="6.95">3~</text>
<text x="440" y="546.705" font-size="9.035">612A~</text>
<text x="440" y="555.705" font-size="9.035">619A</text>
<text x="473.8" y="635.705" font-size="11.12">M</text>
<text x="473.5" y="644.205" font-size="6.95">3~</text>
<text x="482" y="546.705" font-size="9.035">609A</text>
<text x="549" y="594.705" font-size="8.34">SPARE</text>
<text x="524" y="546.705" font-size="9.035">604A</text>
<text x="566" y="546.705" font-size="9.035">603A</text>
<text x="608" y="546.705" font-size="9.035">608A</text>
<text x="650" y="546.705" font-size="9.035">607A</text>
<text x="692" y="546.705" font-size="9.035">606A</text>
<text x="734" y="546.705" font-size="9.035">605A</text>
<text x="818" y="546.705" font-size="9.035">603B</text>
<text x="860" y="546.705" font-size="9.035">604B</text>
<text x="902" y="546.705" font-size="9.035">605B</text>
<text x="944" y="546.705" font-size="9.035">606B</text>
<text x="986" y="546.705" font-size="9.035">607B</text>
<text x="1028" y="546.705" font-size="9.035">608B</text>
<text x="1053" y="594.705" font-size="8.34">SPARE</text>
<text x="1070" y="546.705" font-size="9.035">609B</text>
<text x="1104.5" y="638.205" font-size="9.73">C</text>
<text x="1112" y="546.705" font-size="9.035">610B</text>
<text x="1137" y="634.705" font-size="8.34">SPARE</text>
<text x="1141" y="644.705" font-size="8.34">FOR</text>
<text x="1141" y="654.705" font-size="8.34">CAP</text>
<text x="1154" y="546.705" font-size="9.035">611B~</text>
<text x="1154" y="555.705" font-size="9.035">620B</text>
<text x="1187.8" y="635.705" font-size="11.12">M</text>
<text x="1187.5" y="644.205" font-size="6.95">3~</text>
<text x="1196" y="546.705" font-size="9.035">621B</text>
<text x="1238.743" y="678.809" font-size="8.34">6.9 kV</text>
<text x="1250.8" y="711.723" font-size="11.12">M</text>
<text x="1250.5" y="720.223" font-size="6.95">3~</text>
<text x="1238" y="546.705" font-size="9.035">622B</text>
<text x="1280" y="546.705" font-size="9.035">624B</text>
<text x="1322" y="546.705" font-size="9.035">625B</text>
<text x="1355.8" y="761.69" font-size="11.12">M</text>
<text x="1355.5" y="770.19" font-size="6.95">3~</text>
<text x="1364" y="546.705" font-size="9.035">626B</text>
<text x="1406" y="546.705" font-size="9.035">627B</text>
<text x="1428" y="610.705" font-size="7.645">SOFT</text>
<text x="1428" y="620.705" font-size="7.645">START</text>
<text x="1448" y="546.705" font-size="9.035">628B</text>
<text x="1481.8" y="785.079" font-size="11.12">M</text>
<text x="1481.5" y="793.579" font-size="6.95">3~</text>
<text x="1490" y="546.705" font-size="9.035">629B</text>
<text x="1523.8" y="785.079" font-size="11.12">M</text>
<text x="1523.5" y="793.579" font-size="6.95">3~</text>
<text x="794" y="797.705" font-size="9.73">400-230 V</text>
<text x="752" y="837.705" font-size="9.73">400-230 V</text>
<text x="710" y="877.705" font-size="9.73">400-230 V</text>
<text x="668" y="917.705" font-size="9.73">400-230 V</text>
<text x="619.275" y="971.216" font-size="9.73">400-230 V</text>
<text x="294" y="720.015" font-size="7.645">SOFT</text>
<text x="294" y="730.015" font-size="7.645">START</text>
<text x="1302" y="671.798" font-size="7.645">SOFT</text>
<text x="1302" y="681.798" font-size="7.645">START</text>
<text x="1397.8" y="761.69" font-size="11.12">M</text>
<text x="1397.5" y="770.19" font-size="6.95">3~</text>
</g>
</g>
</svg>